<?xml version="1.0" standalone="no"?><!DOCTYPE svg PUBLIC "-//W3C//DTD SVG 1.1//EN" "http://www.w3.org/Graphics/SVG/1.1/DTD/svg11.dtd"><svg t="1554959389382" class="icon" style="" viewBox="0 0 1024 1024" version="1.1" xmlns="http://www.w3.org/2000/svg" p-id="4504" xmlns:xlink="http://www.w3.org/1999/xlink" width="200" height="200"><defs><style type="text/css"></style></defs><path d="M333.340459 422.627507l89.263-133.983527 89.351004 0-89.351004 133.983527L333.340459 422.627507zM243.903497 288.643979l0 133.983527 89.436962-133.983527L243.903497 288.643979zM601.348446 422.627507l89.307002-133.983527-89.307002 0-89.39296 133.983527L601.348446 422.627507zM243.903497 467.300962l536.105001 0 0 312.684512L243.903497 779.985474 243.903497 467.300962zM288.578999 735.309972l446.752973 0L735.331973 511.932462 288.578999 511.932462 288.578999 735.309972zM780.007475 422.627507 780.007475 288.643979l-89.351004 133.983527L780.007475 422.627507zM467.279984 690.678472l134.069485-69.76083-134.069485-64.22065L467.279984 690.678472zM958.70846 243.88252l0 536.102954c0 98.774631-79.971379 178.744987-178.700985 178.744987L243.903497 958.730461c-98.642624 0-178.61298-79.969333-178.61298-178.744987L65.290517 243.88252c0-98.600669 79.969333-178.615027 178.61298-178.615027l536.105001 0C878.73708 65.267493 958.70846 145.280828 958.70846 243.88252zM869.401458 288.643979c0-74.080206-60.075237-134.069485-134.069485-134.069485L288.578999 154.574494c-74.03825 0-134.027529 59.989279-134.027529 134.069485L154.55147 735.309972c0 74.03825 59.989279 134.113487 134.027529 134.113487l446.752973 0c73.994248 0 134.069485-60.075237 134.069485-134.113487L869.401458 288.643979z" p-id="4505"></path></svg>