<?xml version="1.0" standalone="no"?><!DOCTYPE svg PUBLIC "-//W3C//DTD SVG 1.1//EN" "http://www.w3.org/Graphics/SVG/1.1/DTD/svg11.dtd"><svg t="1554958248727" class="icon" style="" viewBox="0 0 1024 1024" version="1.1" xmlns="http://www.w3.org/2000/svg" p-id="2766" xmlns:xlink="http://www.w3.org/1999/xlink" width="200" height="200"><defs><style type="text/css"></style></defs><path d="M512 448c88.3648 0 160-71.6352 160-160S600.3648 128 512 128 352 199.6352 352 288s71.6352 160 160 160z m0 128c-159.0592 0-288-128.9408-288-288S352.9408 0 512 0s288 128.9408 288 288-128.9408 288-288 288z m287.2832 320l-109.408-128H332.8l-108.8 128h575.2832zM928 1024H96v-185.6l179.2-198.4h472.6016L928 838.4v185.6z" p-id="2767"></path></svg>